<svg height="512" viewBox="0 0 512 512" width="512" xmlns="http://www.w3.org/2000/svg"><g><path d="m296 432h-80l8 32h64z" fill="#57a4ff"/><path d="m64 408h384v-256h-66.26a127.082 127.082 0 0 0 -19.86-47.94l24.23-24.23-33.94-33.94-24.23 24.23a127.381 127.381 0 0 0 -47.94-19.86v-34.26h-48v34.26a127.381 127.381 0 0 0 -47.94 19.86l-24.23-24.23-33.94 33.94 24.23 24.23a127.082 127.082 0 0 0 -19.86 47.94h-66.26zm288-24h-192v-24h192zm-169.76-256a87.68 87.68 0 1 1 -10.92 24 87.916 87.916 0 0 1 10.92-24z" fill="#57a4ff"/><g fill="#004fac"><path d="m352 352h-192a8 8 0 0 0 -8 8v24a8 8 0 0 0 8 8h192a8 8 0 0 0 8-8v-24a8 8 0 0 0 -8-8zm-8 24h-176v-8h176z"/><path d="m246.431 223.845a8.11 8.11 0 0 0 1.578.157 8 8 0 0 0 7.836-6.433l16-80a8 8 0 1 0 -15.69-3.138l-16 80a8 8 0 0 0 6.276 9.414z"/><path d="m224.008 224a8 8 0 0 0 6.852-12.117l-21.531-35.883 21.531-35.884a8 8 0 1 0 -13.72-8.232l-24 40a8 8 0 0 0 0 8.232l24 40a8 8 0 0 0 6.868 3.884z"/><path d="m504.02 431.96a7.989 7.989 0 0 0 -8-8h-16l-.05-276a27.979 27.979 0 0 0 -28-27.99l-72.02.01a136.5 136.5 0 0 0 -7.84-14.83l19.65-19.66a7.985 7.985 0 0 0 0-11.31l-33.94-33.94a7.985 7.985 0 0 0 -11.31 0l-19.66 19.65a134.548 134.548 0 0 0 -38.85-16.1v-27.79a8 8 0 0 0 -8-8h-48a8 8 0 0 0 -8 8v27.79a134.548 134.548 0 0 0 -38.85 16.1l-19.66-19.65a7.985 7.985 0 0 0 -11.31 0l-33.94 33.94a7.985 7.985 0 0 0 0 11.31l19.65 19.66a135.487 135.487 0 0 0 -7.86 14.87l-72.06.01a28.046 28.046 0 0 0 -28 28.01l.05 276h-16a8 8 0 0 0 -8 8l.01 44a28 28 0 0 0 28 28l440-.08a28 28 0 0 0 28-28zm-373.79-271.96h.03a8 8 0 0 0 7.86-6.51 118.825 118.825 0 0 1 18.61-44.93 8.014 8.014 0 0 0 -.95-10.16l-18.57-18.57 22.62-22.62 18.57 18.57a8.013 8.013 0 0 0 10.16.95 118.825 118.825 0 0 1 44.93-18.61 8 8 0 0 0 6.51-7.86v-26.26h32v26.26a8 8 0 0 0 6.51 7.86 118.825 118.825 0 0 1 44.93 18.61 8.014 8.014 0 0 0 10.16-.95l18.57-18.57 22.62 22.62-18.57 18.57a8.014 8.014 0 0 0 -.95 10.16 118.825 118.825 0 0 1 18.61 44.93 8 8 0 0 0 7.86 6.51h26.26v32h-26.26a8 8 0 0 0 -7.86 6.51 118.825 118.825 0 0 1 -18.61 44.93 8.014 8.014 0 0 0 .95 10.16l18.57 18.57-22.62 22.62-18.57-18.57a8.013 8.013 0 0 0 -10.16-.95 118.825 118.825 0 0 1 -44.93 18.61 8 8 0 0 0 -6.51 7.86v26.26h-32v-26.26a8 8 0 0 0 -6.51-7.86 118.825 118.825 0 0 1 -44.93-18.61 8 8 0 0 0 -10.16.95l-18.57 18.57-22.62-22.62 18.57-18.57a8.014 8.014 0 0 0 .95-10.16 118.825 118.825 0 0 1 -18.61-44.93 8 8 0 0 0 -7.86-6.51h-26.26v-31.97l26.23-.01zm-34.23 48h27.79a134.548 134.548 0 0 0 16.1 38.85l-19.65 19.66a7.985 7.985 0 0 0 0 11.31l33.94 33.94a7.985 7.985 0 0 0 11.31 0l19.66-19.65a134.548 134.548 0 0 0 38.85 16.1v27.79a8 8 0 0 0 8 8h48a8 8 0 0 0 8-8v-27.79a134.548 134.548 0 0 0 38.85-16.1l19.66 19.65a7.985 7.985 0 0 0 11.31 0l33.94-33.94a7.985 7.985 0 0 0 0-11.31l-19.65-19.66a134.548 134.548 0 0 0 16.1-38.85h27.79a8 8 0 0 0 8-8v-40.03h15.97l.05 240-368 .06-.05-240h16.03v39.97a8 8 0 0 0 8 8zm-44.52-68.45a11.921 11.921 0 0 1 8.49-3.52l66.03-.01c-.81 2.64-1.56 5.29-2.21 7.98h-27.79c-.18 0-.36.02-.54.03h-31.49a8.006 8.006 0 0 0 -8 8l.05 256a8 8 0 0 0 8 8l384-.06a8.024 8.024 0 0 0 8-8l-.05-256a8 8 0 0 0 -8-8l-59.77.01c-.65-2.7-1.4-5.36-2.21-8l65.98-.01a11.984 11.984 0 0 1 12 11.99l.05 276-416 .07-.05-275.99a11.936 11.936 0 0 1 3.51-8.49zm234.3 300.45-4 16h-51.51l-4-16zm198.73 44.45a11.913 11.913 0 0 1 -8.48 3.51l-440 .08a12.01 12.01 0 0 1 -12-12l-.01-36 185.76-.03 6.48 25.94a8.012 8.012 0 0 0 7.77 6.06l64-.02a8 8 0 0 0 7.76-6.06l6.48-25.94 169.75-.03h16l.01 36a11.921 11.921 0 0 1 -3.52 8.49z"/><path d="m256 80a96 96 0 1 0 96 96 96.115 96.115 0 0 0 -96-96zm0 176a80 80 0 1 1 80-80 80.093 80.093 0 0 1 -80 80z"/><path d="m318.86 180.12-24 40a8 8 0 0 1 -13.72-8.24l21.53-35.88-21.53-35.88a8 8 0 0 1 13.72-8.24l24 40a8.015 8.015 0 0 1 0 8.24z"/></g></g></svg>