<svg height="512" viewBox="0 0 512 512" width="512" xmlns="http://www.w3.org/2000/svg"><g><g fill="#57a4ff"><path d="m476 72h-440a19.994 19.994 0 0 0 -20 20v276h480v-276a19.994 19.994 0 0 0 -20-20zm-396 248h-32v-32h32zm0-56h-32v-32h32zm0-56h-32v-32h32zm0-56h-32v-32h32zm160 152h-80l20.07-40.14a55.99 55.99 0 1 1 35.17-9.38zm108.53-12.42-92.11-27.05 27.05-92.11 92.11 27.05zm115.47 28.42h-32v-32h32zm0-56h-32v-32h32zm0-56h-32v-32h32zm0-56h-32v-32h32z"/><path d="m312 416h-112l-16 56h144z"/><path d="m180.07 263.86c1.3.09 2.61.14 3.93.14a55.746 55.746 0 0 0 31.24-9.52l-15.24-30.48z"/><path d="m184 48h176a16 16 0 0 0 0-32h-176z"/></g><g fill="#004fac"><path d="m476 64h-440a28.031 28.031 0 0 0 -28 28v304a28.031 28.031 0 0 0 28 28h153.39l-11.42 40h-33.97a8 8 0 0 0 -8 8v24a8 8 0 0 0 8 8h224a8 8 0 0 0 8-8v-24a8 8 0 0 0 -8-8h-33.97l-11.42-40h153.39a28.031 28.031 0 0 0 28-28v-304a28.031 28.031 0 0 0 -28-28zm-116 416v8h-208v-8zm-165.39-16 11.42-40h99.94l11.42 40zm293.39-68a12.01 12.01 0 0 1 -12 12h-440a12.01 12.01 0 0 1 -12-12v-20h464zm0-36h-464v-268a12.01 12.01 0 0 1 12-12h440a12.01 12.01 0 0 1 12 12z"/><path d="m48 160h32a8 8 0 0 0 8-8v-32a8 8 0 0 0 -8-8h-32a8 8 0 0 0 -8 8v32a8 8 0 0 0 8 8zm8-32h16v16h-16z"/><path d="m48 216h32a8 8 0 0 0 8-8v-32a8 8 0 0 0 -8-8h-32a8 8 0 0 0 -8 8v32a8 8 0 0 0 8 8zm8-32h16v16h-16z"/><path d="m48 272h32a8 8 0 0 0 8-8v-32a8 8 0 0 0 -8-8h-32a8 8 0 0 0 -8 8v32a8 8 0 0 0 8 8zm8-32h16v16h-16z"/><path d="m48 328h32a8 8 0 0 0 8-8v-32a8 8 0 0 0 -8-8h-32a8 8 0 0 0 -8 8v32a8 8 0 0 0 8 8zm8-32h16v16h-16z"/><path d="m432 160h32a8 8 0 0 0 8-8v-32a8 8 0 0 0 -8-8h-32a8 8 0 0 0 -8 8v32a8 8 0 0 0 8 8zm8-32h16v16h-16z"/><path d="m432 216h32a8 8 0 0 0 8-8v-32a8 8 0 0 0 -8-8h-32a8 8 0 0 0 -8 8v32a8 8 0 0 0 8 8zm8-32h16v16h-16z"/><path d="m432 272h32a8 8 0 0 0 8-8v-32a8 8 0 0 0 -8-8h-32a8 8 0 0 0 -8 8v32a8 8 0 0 0 8 8zm8-32h16v16h-16z"/><path d="m432 328h32a8 8 0 0 0 8-8v-32a8 8 0 0 0 -8-8h-32a8 8 0 0 0 -8 8v32a8 8 0 0 0 8 8zm8-32h16v16h-16z"/><path d="m168.061 269.99-15.216 30.432a8 8 0 0 0 7.155 11.578h80a8 8 0 0 0 7.155-11.578l-21.812-43.622a63.954 63.954 0 1 0 -57.282 13.192zm59 26.01h-54.117l12.013-24.024a63.607 63.607 0 0 0 26.9-6.367zm-33.651-40.932 6.59-13.179 4.705 9.41a47.658 47.658 0 0 1 -11.295 3.769zm-9.41-95.068a47.977 47.977 0 0 1 33.913 81.937l-10.758-21.515a8 8 0 0 0 -14.31 0l-17.4 34.8a47.994 47.994 0 0 1 8.555-95.222z"/><path d="m254.166 272.207 92.111 27.048a7.988 7.988 0 0 0 9.93-5.422l27.049-92.11a8 8 0 0 0 -5.422-9.93l-92.111-27.048a8 8 0 0 0 -9.93 5.422l-27.049 92.11a8 8 0 0 0 5.422 9.93zm34.725-89.857 76.759 22.541-22.541 76.759-76.759-22.541z"/><path d="m132.422 39.155 32 16a7.994 7.994 0 0 0 3.578.845h192a24 24 0 0 0 0-48h-192a7.994 7.994 0 0 0 -3.578.845l-32 16a8 8 0 0 0 0 14.31zm235.578-7.155a8.009 8.009 0 0 1 -8 8h-168v-16h168a8.009 8.009 0 0 1 8 8zm-198.111-8h6.111v16h-6.111l-16-8z"/></g></g></svg>