<svg id="Layer_2" data-name="Layer 2" xmlns="http://www.w3.org/2000/svg" xmlns:xlink="http://www.w3.org/1999/xlink" width="1920" height="1080" viewBox="0 0 1920 1080" preserveAspectRatio="none">
    <defs>
        <linearGradient id="linear-gradient" x1="1" x2="0" y2="0.918" gradientUnits="objectBoundingBox">
            <stop offset="0" stop-color="#1534b1"/>
            <stop offset="1" stop-color="#091652"/>
        </linearGradient>
    </defs>
    <g id="Layer_1" data-name="Layer 1">
        <path id="Path_33" data-name="Path 33" d="M1920,0V1079.94c-26-22.94-206.18-69.65-326-77.94-52.63-3.65-162-7.62-285-10.92V0Z" fill="url(#linear-gradient)"/>
        <path id="Path_34" data-name="Path 34" d="M1309,0V991l-8.43-.34q-4.17-.18-8.39-.33C1117.26,983.52,909.77,982.9,814,984c-168.63,1.93-388-29.94-418.65-32.82l-.69-.06h-.62l-1-.07-1-.06-1.17-.09C364.33,948.51,214.27,925.23,129,901c-58.3-16.56-96.29-43.32-115.07-59.27l-.31-.26A151.779,151.779,0,0,1,.31,828.93l-.19-.21h0L0,828.61H0V0Z" fill="#fff"/>
        <path id="Path_35" data-name="Path 35" d="M970,402.5C964,589,1108.12,673,1278.5,673q15.55,0,30.5-1.34V991l-8.43-.34q-4.17-.18-8.39-.33c-174.85-6.62-381.3-4.39-478.18-6.33-168.59-3.37-387.94-30.26-418.65-32.82l-.69-.06h-.62l-1-.07-1-.06-1.17-.09C364.25,948.78,212.93,929.55,129,901c-62.14-21.14-97.61-44.92-115.07-59.27l-.31-.26A110.784,110.784,0,0,1,.31,828.93l-.19-.21h0L0,828.61H0V0H1309V126.09q-14.09-.84-29-1.09C1115.5,129,970,253.1,970,402.5Z" fill="#fff"/>
        <path id="Path_36" data-name="Path 36" d="M1309,126.09V671.66c153.73-13.52,257.69-128.9,270-268.66C1592.41,250.67,1523.21,138.74,1309,126.09Z" fill="#2143c2"/>
        <path id="Path_37" data-name="Path 37" d="M1280,125c-164.5,4-310,128.1-310,277.5C964,589,1108.12,673,1278.5,673q15.55,0,30.5-1.34V126.09Q1294.92,125.25,1280,125Z" fill="#eafbf3"/>
        <path id="Path_38" data-name="Path 38" d="M1309,126.09q-14.09-.84-29-1.09c-164.5,4-310,128.1-310,277.5C964,589,1108.12,673,1278.5,673q15.55,0,30.5-1.34Z" fill="#d2d9f3"/>
        <g id="Group_8" data-name="Group 8">
            <path id="Path_39" data-name="Path 39" d="M1835,477.83l-50.63-84a5.936,5.936,0,0,0-.35-.52,8,8,0,0,0-6.5-3.35H1676.8a8,8,0,0,0-6.86,3.87l-50.63,84a8,8,0,0,0,0,8.26l50.63,84a8,8,0,0,0,6.86,3.87h100.74a8,8,0,0,0,6.63-3.54l.22-.33,50.63-84a8,8,0,0,0-.02-8.26Zm-35,8.26-32.56,54a6.929,6.929,0,0,1-.42.63,8,8,0,0,1-6.43,3.24h-66.84a8,8,0,0,1-6.86-3.87l-32.55-54a8,8,0,0,1,0-8.26l32.55-54a8,8,0,0,1,6.86-3.87h66.84a8,8,0,0,1,6.3,3.06c.19.26.38.53.55.81l32.56,54a8,8,0,0,1,0,8.26Z" fill="#2143c2"/>
        </g>
        <path id="Path_40" data-name="Path 40" d="M1766.89,423,1784,393.28,1817.72,335a12,12,0,0,1,10.39-6H1920V297H1809.63a12,12,0,0,0-10.389,6l-50.221,87-17.32,30-32.23,55.83a12,12,0,0,0,0,12L1731.94,544l17.32,30,50,86.57a12,12,0,0,0,10.39,6H1920v-32h-91.89a12,12,0,0,1-10.389-6L1784.17,570.46,1767,540.76l-30.6-53a12,12,0,0,1,0-12Z" fill="#2143c2"/>
        <g id="Group_9" data-name="Group 9">
            <circle id="Ellipse_27" data-name="Ellipse 27" cx="1.83" cy="1.83" r="1.83" transform="translate(1515.71 211.43)" fill="#fff"/>
            <circle id="Ellipse_28" data-name="Ellipse 28" cx="1.83" cy="1.83" r="1.83" transform="translate(1540.84 211.43)" fill="#fff"/>
            <path id="Path_41" data-name="Path 41" d="M1569.62,213.26a1.83,1.83,0,1,1-1.83-1.82,1.83,1.83,0,0,1,1.83,1.82Z" fill="#fff"/>
            <circle id="Ellipse_29" data-name="Ellipse 29" cx="1.83" cy="1.83" r="1.83" transform="translate(1591.09 211.43)" fill="#fff"/>
            <circle id="Ellipse_30" data-name="Ellipse 30" cx="1.83" cy="1.83" r="1.83" transform="translate(1616.21 211.43)" fill="#fff"/>
            <path id="Path_42" data-name="Path 42" d="M1645,213.26a1.83,1.83,0,1,1-1.83-1.82,1.83,1.83,0,0,1,1.83,1.82Z" fill="#fff"/>
            <circle id="Ellipse_31" data-name="Ellipse 31" cx="1.83" cy="1.83" r="1.83" transform="translate(1515.71 234.4)" fill="#fff"/>
            <circle id="Ellipse_32" data-name="Ellipse 32" cx="1.83" cy="1.83" r="1.83" transform="translate(1540.84 234.4)" fill="#fff"/>
            <path id="Path_43" data-name="Path 43" d="M1569.62,236.23a1.83,1.83,0,1,1-1.83-1.83,1.83,1.83,0,0,1,1.83,1.83Z" fill="#fff"/>
            <circle id="Ellipse_33" data-name="Ellipse 33" cx="1.83" cy="1.83" r="1.83" transform="translate(1591.09 234.4)" fill="#fff"/>
            <circle id="Ellipse_34" data-name="Ellipse 34" cx="1.83" cy="1.83" r="1.83" transform="translate(1616.21 234.4)" fill="#fff"/>
            <path id="Path_44" data-name="Path 44" d="M1645,236.23a1.83,1.83,0,1,1-1.83-1.83,1.83,1.83,0,0,1,1.83,1.83Z" fill="#fff"/>
            <circle id="Ellipse_35" data-name="Ellipse 35" cx="1.83" cy="1.83" r="1.83" transform="translate(1515.71 257.37)" fill="#fff"/>
            <circle id="Ellipse_36" data-name="Ellipse 36" cx="1.83" cy="1.83" r="1.83" transform="translate(1540.84 257.37)" fill="#fff"/>
            <path id="Path_45" data-name="Path 45" d="M1569.62,259.2a1.83,1.83,0,1,1-1.83-1.83A1.83,1.83,0,0,1,1569.62,259.2Z" fill="#fff"/>
            <circle id="Ellipse_37" data-name="Ellipse 37" cx="1.83" cy="1.83" r="1.83" transform="translate(1591.09 257.37)" fill="#fff"/>
            <circle id="Ellipse_38" data-name="Ellipse 38" cx="1.83" cy="1.83" r="1.83" transform="translate(1616.21 257.37)" fill="#fff"/>
            <path id="Path_46" data-name="Path 46" d="M1645,259.2a1.83,1.83,0,1,1-1.83-1.83,1.83,1.83,0,0,1,1.83,1.83Z" fill="#fff"/>
            <path id="Path_47" data-name="Path 47" d="M1519.37,282.17a1.83,1.83,0,1,1-1.83-1.83,1.83,1.83,0,0,1,1.83,1.83Z" fill="#fff"/>
            <path id="Path_48" data-name="Path 48" d="M1544.49,282.17a1.83,1.83,0,1,1-1.82-1.83,1.83,1.83,0,0,1,1.82,1.83Z" fill="#fff"/>
            <path id="Path_49" data-name="Path 49" d="M1569.62,282.17a1.83,1.83,0,1,1-1.83-1.83A1.83,1.83,0,0,1,1569.62,282.17Z" fill="#fff"/>
            <path id="Path_50" data-name="Path 50" d="M1594.75,282.17a1.83,1.83,0,1,1-1.83-1.83A1.83,1.83,0,0,1,1594.75,282.17Z" fill="#fff"/>
            <path id="Path_51" data-name="Path 51" d="M1619.87,282.17a1.83,1.83,0,1,1-1.83-1.83,1.83,1.83,0,0,1,1.83,1.83Z" fill="#fff"/>
            <path id="Path_52" data-name="Path 52" d="M1645,282.17a1.83,1.83,0,1,1-1.83-1.83,1.83,1.83,0,0,1,1.83,1.83Z" fill="#fff"/>
            <circle id="Ellipse_39" data-name="Ellipse 39" cx="1.83" cy="1.83" r="1.83" transform="translate(1515.71 303.3)" fill="#fff"/>
            <circle id="Ellipse_40" data-name="Ellipse 40" cx="1.83" cy="1.83" r="1.83" transform="translate(1540.84 303.3)" fill="#fff"/>
            <path id="Path_53" data-name="Path 53" d="M1569.62,305.13a1.83,1.83,0,1,1-1.83-1.82,1.83,1.83,0,0,1,1.83,1.82Z" fill="#fff"/>
            <circle id="Ellipse_41" data-name="Ellipse 41" cx="1.83" cy="1.83" r="1.83" transform="translate(1591.09 303.3)" fill="#fff"/>
            <circle id="Ellipse_42" data-name="Ellipse 42" cx="1.83" cy="1.83" r="1.83" transform="translate(1616.21 303.3)" fill="#fff"/>
            <path id="Path_54" data-name="Path 54" d="M1645,305.13a1.83,1.83,0,1,1-1.83-1.82,1.83,1.83,0,0,1,1.83,1.82Z" fill="#fff"/>
            <circle id="Ellipse_43" data-name="Ellipse 43" cx="1.83" cy="1.83" r="1.83" transform="translate(1515.71 326.27)" fill="#fff"/>
            <circle id="Ellipse_44" data-name="Ellipse 44" cx="1.83" cy="1.83" r="1.83" transform="translate(1540.84 326.27)" fill="#fff"/>
            <path id="Path_55" data-name="Path 55" d="M1569.62,328.1a1.83,1.83,0,1,1-1.83-1.83A1.83,1.83,0,0,1,1569.62,328.1Z" fill="#fff"/>
            <circle id="Ellipse_45" data-name="Ellipse 45" cx="1.83" cy="1.83" r="1.83" transform="translate(1591.09 326.27)" fill="#fff"/>
            <circle id="Ellipse_46" data-name="Ellipse 46" cx="1.83" cy="1.83" r="1.83" transform="translate(1616.21 326.27)" fill="#fff"/>
            <path id="Path_56" data-name="Path 56" d="M1645,328.1a1.83,1.83,0,1,1-1.83-1.83,1.83,1.83,0,0,1,1.83,1.83Z" fill="#fff"/>
            <circle id="Ellipse_47" data-name="Ellipse 47" cx="1.83" cy="1.83" r="1.83" transform="translate(1515.71 349.65)" fill="#fff"/>
            <circle id="Ellipse_48" data-name="Ellipse 48" cx="1.83" cy="1.83" r="1.83" transform="translate(1540.84 349.65)" fill="#fff"/>
            <path id="Path_57" data-name="Path 57" d="M1569.62,351.48a1.82,1.82,0,1,1-.533-1.3,1.83,1.83,0,0,1,.533,1.3Z" fill="#fff"/>
            <circle id="Ellipse_49" data-name="Ellipse 49" cx="1.83" cy="1.83" r="1.83" transform="translate(1591.09 349.65)" fill="#fff"/>
            <circle id="Ellipse_50" data-name="Ellipse 50" cx="1.83" cy="1.83" r="1.83" transform="translate(1616.21 349.65)" fill="#fff"/>
            <path id="Path_58" data-name="Path 58" d="M1645,351.48a1.82,1.82,0,1,1-.533-1.3,1.83,1.83,0,0,1,.533,1.3Z" fill="#fff"/>
        </g>
        <path id="Path_59" data-name="Path 59" d="M1920,887V995a65.679,65.679,0,0,1-38,12c-1.43,0-2.86,0-4.27-.14-1-.06-2.08-.15-3.11-.27a66,66,0,0,1-57.09-51.43q-.35-1.51-.6-3.06A66.042,66.042,0,0,1,1920,887Z" fill="#2143c2"/>
        <path id="Path_60" data-name="Path 60" d="M1836.5,947.5a43.74,43.74,0,1,0,31.19,12.81A44,44,0,0,0,1836.5,947.5Zm0,85a41,41,0,1,1,38.12-25.91A41,41,0,0,1,1836.5,1032.5Z" fill="#42a0fe"/>
        <g id="Group_11" data-name="Group 11" opacity="0.2">
            <g id="Group_10" data-name="Group 10">
                <path id="Path_61" data-name="Path 61" d="M81.22,566.67l-.18-.12L34.21,538.33a4.47,4.47,0,0,0-4.6,0L0,556.17v19.52l29.61-17.84a4.42,4.42,0,0,1,4.6,0L64.32,576a2.708,2.708,0,0,1,.35.24,4.46,4.46,0,0,1,1.81,3.58v37.25a4.44,4.44,0,0,1-2.16,3.81L34.21,639a4.47,4.47,0,0,1-4.6,0L0,621.17v19.52l29.61,17.84a4.42,4.42,0,0,0,4.6,0L81,630.32a4.47,4.47,0,0,0,2.16-3.82V570.36a4.41,4.41,0,0,0-1.94-3.69Z" fill="#2143c2"/>
            </g>
            <path id="Path_62" data-name="Path 62" d="M131.44,435.49l-96.3-55.6a6.71,6.71,0,0,0-6.69,0L0,396.32v20.59l28.45-16.43a6.71,6.71,0,0,1,6.69,0l78.47,45.31a6.67,6.67,0,0,1,3.34,5.79v90.6a6.67,6.67,0,0,1-3.34,5.79l-32.39,18.7-16.55,9.56-29.53,17a6.71,6.71,0,0,1-6.69,0L0,576.85v20.59l28.45,16.43a6.71,6.71,0,0,0,6.69,0l31.34-18.09,16.72-9.66,48.24-27.85a6.69,6.69,0,0,0,3.34-5.79V441.28a6.69,6.69,0,0,0-3.339-5.79Z" fill="#2143c2"/>
        </g>
        <circle id="Ellipse_51" data-name="Ellipse 51" cx="43.44" cy="43.44" r="43.44" transform="translate(1033.94 242.02)" fill="#dbe5ff"/>
        <path id="Path_63" data-name="Path 63" d="M1114.52,227.26a29,29,0,0,0-29.18,15.49,28.626,28.626,0,0,0-3,9.82,29,29,0,1,0,32.2-25.31Zm23.35,32a27,27,0,0,1-17.24,22,26.66,26.66,0,0,1-12.77,1.57,27,27,0,0,1-23.58-30,26.73,26.73,0,0,1,3.07-9.64,27,27,0,0,1,50.52,16.06Z" fill="#2143c2" opacity="0.41"/>
        <g id="Group_12" data-name="Group 12">
            <path id="Path_64" data-name="Path 64" d="M893.48,786.29a2,2,0,0,0-1-1.73l-22-12.58a2,2,0,0,0-2,0l-21.9,12.76a2,2,0,0,0-1,1.74l.11,25.35a2,2,0,0,0,1,1.73l22,12.58a2,2,0,0,0,2,0l21.9-12.76a2,2,0,0,0,1-1.74Zm-4.9,24.79-17.91,10.44a2,2,0,0,1-2,0l-18-10.29a2,2,0,0,1-1-1.73l-.09-20.73a2,2,0,0,1,1-1.73l17.91-10.45a2,2,0,0,1,2,0l18,10.29a2,2,0,0,1,1,1.73l.09,20.73a2,2,0,0,1-1,1.74Z" fill="#d2d9f3"/>
        </g>
        <g id="Group_13" data-name="Group 13">
            <path id="Path_65" data-name="Path 65" d="M574.07,838.89a4.63,4.63,0,0,0-6.94-3.82l-48.84,28.2a4.92,4.92,0,0,0-.08,8.48l49.64,29.85a5.58,5.58,0,0,0,8.46-5Zm-8.73,54.2-39.56-23.8a2,2,0,0,1,0-3.43L564,843.81a2.92,2.92,0,0,1,4.37,2.41l1.71,44.07a3.12,3.12,0,0,1-4.74,2.8Z" fill="#d2d9f3"/>
        </g>
        <rect id="Rectangle_2" data-name="Rectangle 2" width="1920" height="1080" fill="none"/>
        <g id="Group_14" data-name="Group 14" transform="translate(-213 -690.973)">
            <path id="Path_65-2" data-name="Path 65" d="M574.07,838.89a4.63,4.63,0,0,0-6.94-3.82l-48.84,28.2a4.92,4.92,0,0,0-.08,8.48l49.64,29.85a5.58,5.58,0,0,0,8.46-5Zm-8.73,54.2-39.56-23.8a2,2,0,0,1,0-3.43L564,843.81a2.92,2.92,0,0,1,4.37,2.41l1.71,44.07a3.12,3.12,0,0,1-4.74,2.8Z" fill="#d2d9f3"/>
        </g>
        <g id="Group_15" data-name="Group 15" transform="translate(-576 -243)">
            <path id="Path_64-2" data-name="Path 64" d="M893.48,786.29a2,2,0,0,0-1-1.73l-22-12.58a2,2,0,0,0-2,0l-21.9,12.76a2,2,0,0,0-1,1.74l.11,25.35a2,2,0,0,0,1,1.73l22,12.58a2,2,0,0,0,2,0l21.9-12.76a2,2,0,0,0,1-1.74Zm-4.9,24.79-17.91,10.44a2,2,0,0,1-2,0l-18-10.29a2,2,0,0,1-1-1.73l-.09-20.73a2,2,0,0,1,1-1.73l17.91-10.45a2,2,0,0,1,2,0l18,10.29a2,2,0,0,1,1,1.73l.09,20.73a2,2,0,0,1-1,1.74Z" fill="#d2d9f3"/>
        </g>
    </g>
</svg>
