<svg height="512" viewBox="0 0 512 512" width="512" xmlns="http://www.w3.org/2000/svg"><g><g fill="#57a4ff"><path d="m476 72h-132v196a19.994 19.994 0 0 1 -20 20h-136a19.994 19.994 0 0 1 -20-20v-196h-132a19.994 19.994 0 0 0 -20 20v276h480v-276a19.994 19.994 0 0 0 -20-20z"/><path d="m312 416h-112l-16 56h144z"/><path d="m232 40h48l8-24h-64z"/></g><g fill="#004fac"><path d="m476 64h-124v-28a28.031 28.031 0 0 0 -28-28h-136a28.031 28.031 0 0 0 -28 28v28h-124a28.031 28.031 0 0 0 -28 28v304a28.031 28.031 0 0 0 28 28h153.39l-11.42 40h-33.97a8 8 0 0 0 -8 8v24a8 8 0 0 0 8 8h224a8 8 0 0 0 8-8v-24a8 8 0 0 0 -8-8h-33.97l-11.42-40h153.39a28.031 28.031 0 0 0 28-28v-304a28.031 28.031 0 0 0 -28-28zm-199.1-40-2.67 8h-36.46l-2.67-8zm-100.9 12a12.01 12.01 0 0 1 12-12h30.23l6.18 18.53a8 8 0 0 0 7.59 5.47h48a8 8 0 0 0 7.59-5.47l6.18-18.53h30.23a12.01 12.01 0 0 1 12 12v232a12.01 12.01 0 0 1 -12 12h-136a12.01 12.01 0 0 1 -12-12zm184 444v8h-208v-8zm-165.39-16 11.42-40h99.94l11.42 40zm293.39-68a12.01 12.01 0 0 1 -12 12h-440a12.01 12.01 0 0 1 -12-12v-20h464zm0-36h-464v-268a12.01 12.01 0 0 1 12-12h124v188a28.031 28.031 0 0 0 28 28h36v31a8 8 0 0 0 16 0v-31h8v16a8 8 0 0 0 16 0v-16h8v40a8 8 0 0 0 16 0v-40h36a28.031 28.031 0 0 0 28-28v-188h124a12.01 12.01 0 0 1 12 12z"/><path d="m240 272h32a8 8 0 0 0 0-16h-32a8 8 0 0 0 0 16z"/></g></g></svg>